<svg xmlns="http://www.w3.org/2000/svg" viewBox="0 0 600 600" role="img" aria-label="Klimasun">
<rect width="600" height="600" fill="#141414"/>
<g transform="translate(205,120)">
<rect x="0" y="0" width="190" height="250" rx="14" fill="#1c1c1c" stroke="#F4C20D" stroke-width="5"/>
<g stroke="#3a3a3a" stroke-width="6" stroke-linecap="round">
<line x1="26" y1="34" x2="164" y2="34"/><line x1="26" y1="54" x2="164" y2="54"/><line x1="26" y1="74" x2="164" y2="74"/>
</g>
<circle cx="95" cy="160" r="52" fill="none" stroke="#4a4a4a" stroke-width="5"/>
<g fill="#F4C20D" opacity="0.85">
<path d="M95 160 L95 112 A48 48 0 0 1 137 148 Z"/>
<path d="M95 160 L137 184 A48 48 0 0 1 63 200 Z"/>
<path d="M95 160 L53 184 A48 48 0 0 1 63 120 Z"/>
</g>
<circle cx="95" cy="160" r="10" fill="#111" stroke="#F4C20D" stroke-width="3"/>
</g>
<text x="300" y="452" text-anchor="middle" font-family="Arial,Helvetica,sans-serif" font-size="52" font-weight="800" fill="#ffffff">KLIMA<tspan fill="#F4C20D">SUN</tspan></text>
<text x="300" y="486" text-anchor="middle" font-family="Arial,Helvetica,sans-serif" font-size="17" letter-spacing="4" fill="#8a8a8a">ENDÜSTRİYEL İKLİMLENDİRME</text>
<text x="300" y="528" text-anchor="middle" font-family="Arial,Helvetica,sans-serif" font-size="15" fill="#6a6a6a">Ürün görseli için teklif isteyin</text>
</svg>